<svg width="33" height="33" viewBox="0 0 33 33" fill="none" xmlns="http://www.w3.org/2000/svg">
<path d="M11.4595 33C13.4168 33 15.0036 31.4132 15.0036 29.4559C15.0036 27.4985 13.4168 25.9117 11.4595 25.9117C9.5021 25.9117 7.91534 27.4985 7.91534 29.4559C7.91534 31.4132 9.5021 33 11.4595 33Z" fill="url(#paint0_linear)"/>
<path d="M26.4236 33C28.381 33 29.9678 31.4132 29.9678 29.4559C29.9678 27.4985 28.381 25.9117 26.4236 25.9117C24.4663 25.9117 22.8795 27.4985 22.8795 29.4559C22.8795 31.4132 24.4663 33 26.4236 33Z" fill="url(#paint1_linear)"/>
<path d="M8.66351 6.18254L7.44274 2.48089C6.9568 1.01748 5.59787 0.0220094 4.05608 0H1.41766C0.982669 0 0.630066 0.352603 0.630066 0.787592C0.630066 1.22258 0.982669 1.57518 1.41766 1.57518H4.05608C4.91241 1.5941 5.66646 2.14396 5.94633 2.95349L10.9082 18.0358L10.5538 18.9415C10.1219 20.0707 10.2383 21.3361 10.8688 22.3676C11.5242 23.3681 12.6268 23.9855 13.8223 24.0215H29.1803C29.6153 24.0215 29.9679 23.6689 29.9679 23.2339C29.9679 22.7989 29.6153 22.4463 29.1803 22.4463H13.8222C13.1592 22.4234 12.5523 22.0682 12.2077 21.5012C11.836 20.9416 11.7624 20.2352 12.0108 19.6109L12.4834 18.4295C12.5544 18.2408 12.5681 18.0353 12.5227 17.8388L12.2864 17.2481L28.3139 15.5941C29.4808 15.4891 30.449 14.6479 30.716 13.507L32.3699 6.53688L8.66351 6.18254Z" fill="url(#paint2_linear)"/>
<defs>
<linearGradient id="paint0_linear" x1="11.4595" y1="25.9117" x2="11.4595" y2="33" gradientUnits="userSpaceOnUse">
<stop stop-color="white"/>
<stop offset="0.9999" stop-color="white" stop-opacity="0.46875"/>
<stop offset="1" stop-color="white" stop-opacity="0"/>
</linearGradient>
<linearGradient id="paint1_linear" x1="26.4236" y1="25.9117" x2="26.4236" y2="33" gradientUnits="userSpaceOnUse">
<stop stop-color="white"/>
<stop offset="0.9999" stop-color="white" stop-opacity="0.46875"/>
<stop offset="1" stop-color="white" stop-opacity="0"/>
</linearGradient>
<linearGradient id="paint2_linear" x1="16.5" y1="0" x2="16.5" y2="24.0215" gradientUnits="userSpaceOnUse">
<stop stop-color="white"/>
<stop offset="0.9999" stop-color="white" stop-opacity="0.46875"/>
<stop offset="1" stop-color="white" stop-opacity="0"/>
</linearGradient>
</defs>
</svg>
